<svg xmlns="http://www.w3.org/2000/svg" width="330" height="96" viewBox="0 0 330 96" fill="none" font-family="-apple-system, BlinkMacSystemFont, &#39;Helvetica Neue&#39;, Arial, sans-serif">
  <g transform="translate(2,12) scale(0.62)">
    <g stroke="#4AA8FF" stroke-linecap="round" stroke-linejoin="round">
      <circle cx="50" cy="50" r="33" stroke-width="7"></circle>
      <circle cx="50" cy="50" r="24" stroke-width="3.5"></circle>
      <path d="M50,12 L50,18" stroke-width="3.5"></path>
      <path d="M50,82 L50,88" stroke-width="3.5"></path>
      <path d="M12,50 L18,50" stroke-width="3.5"></path>
      <path d="M82,50 L88,50" stroke-width="3.5"></path>
      <path d="M75,75 L97,97" stroke-width="9"></path>
      <circle cx="50" cy="50" r="7.5" stroke-width="3.5"></circle>
    </g>
    <polygon fill="#F05138" points="50,26 57,50 43,50"></polygon>
    <polygon fill="#4AA8FF" opacity="0.4" points="50,74 57,50 43,50"></polygon>
    <polygon fill="#4AA8FF" opacity="0.4" points="74,50 50,44 50,56"></polygon>
    <polygon fill="#4AA8FF" opacity="0.4" points="26,50 50,44 50,56"></polygon>
    <circle fill="#4AA8FF" cx="50" cy="50" r="3.5"></circle>
  </g>
  <text x="84" y="63" font-size="52" font-weight="600" letter-spacing="-1.3">
    <tspan fill="#FFFFFF">Scout</tspan><tspan fill="#5AB0FF">DB</tspan>
  </text>
</svg>